v -0.00090000 0.00025000 -0.00146200
v -0.00090000 0.00025000 -0.00146200
v -0.00090000 0.00025000 -0.00146200
v -0.00090000 0.00420700 -0.00146200
v -0.00090000 0.00420700 -0.00146200
v -0.00090000 0.00420700 -0.00146200
v -0.00090000 0.00025000 0.00053800
v -0.00090000 0.00025000 0.00053800
v -0.00090000 0.00025000 0.00053800
v -0.00090000 0.00420700 0.00053800
v -0.00090000 0.00420700 0.00053800
v -0.00090000 0.00420700 0.00053800
v -0.00546700 0.00025000 -0.00146200
v -0.00546700 0.00025000 -0.00146200
v -0.00546700 0.00025000 -0.00146200
v -0.00546700 0.00025000 0.00053800
v -0.00546700 0.00025000 0.00053800
v -0.00546700 0.00025000 0.00053800
v -0.00546700 0.00420700 -0.00146200
v -0.00546700 0.00420700 -0.00146200
v -0.00546700 0.00420700 -0.00146200
v -0.00546700 0.00420700 0.00053800
v -0.00546700 0.00420700 0.00053800
v -0.00546700 0.00420700 0.00053800
vn 1.00000000 -0.00000000 -0.00000000
vn -0.00000000 -0.00000000 -1.00000000
vn -0.00000000 -1.00000000 -0.00000000
vn 1.00000000 -0.00000000 -0.00000000
vn -0.00000000 -0.00000000 -1.00000000
vn -0.00000000 1.00000000 -0.00000000
vn -0.00000000 -0.00000000 1.00000000
vn -0.00000000 -1.00000000 -0.00000000
vn 1.00000000 -0.00000000 -0.00000000
vn -0.00000000 1.00000000 -0.00000000
vn -0.00000000 -0.00000000 1.00000000
vn 1.00000000 -0.00000000 -0.00000000
vn -1.00000000 -0.00000000 -0.00000000
vn -0.00000000 -0.00000000 -1.00000000
vn -0.00000000 -1.00000000 -0.00000000
vn -0.00000000 -1.00000000 -0.00000000
vn -1.00000000 -0.00000000 -0.00000000
vn -0.00000000 -0.00000000 1.00000000
vn -0.00000000 -0.00000000 -1.00000000
vn -0.00000000 1.00000000 -0.00000000
vn -1.00000000 -0.00000000 -0.00000000
vn -1.00000000 -0.00000000 -0.00000000
vn -0.00000000 1.00000000 -0.00000000
vn -0.00000000 -0.00000000 1.00000000
f 1//1 4//4 9//9
f 9//9 4//4 12//12
f 15//15 3//3 16//16
f 16//16 3//3 8//8
f 21//21 13//13 22//22
f 22//22 13//13 17//17
f 6//6 20//20 10//10
f 10//10 20//20 23//23
f 14//14 19//19 2//2
f 2//2 19//19 5//5
f 24//24 18//18 11//11
f 11//11 18//18 7//7

